<svg fill="none" height="40" viewBox="0 0 200 40" width="200" xmlns="http://www.w3.org/2000/svg"><path clip-rule="evenodd" d="m34.6794 14.314 1.5432-1.5268.0041-.0082s6.8442 6.7582-.0409 14.4948l-1.4737-1.4c-.5976 7.6752-6.8442 8.764-8.6575 8.9155l1.1911 1.2526c-2.6034 2.3127-5.0881 3.0741-7.2494 3.0659v-9.3329c-.1473.0081-.2906.0122-.438.0122h-.0245c-5.2928-.0122-9.57862-4.3062-9.57862-9.599s4.28582-9.5868 9.57862-9.5991h.0245c.1474 0 .2947.0041.438.0123v-9.72184c2.1613-.008187 4.6501.75319 7.2494 3.06187l-1.4081 1.48182c1.5187.09415 8.2032.96195 8.8418 8.89085zm-5.5302 5.4566 5.1945-5.1291h-.0041l-6.8278.1719c.9661 1.4245 1.5596 3.1233 1.6374 4.9572zm-3.6595-7.1308.0409-6.88918-4.687 4.92848c1.7397.2292 3.3321.9292 4.6461 1.9607zm-5.9273 3.3976c-2.2964 0-4.1548 1.8584-4.1548 4.1548s1.8584 4.1548 4.1548 4.1548 4.1548-1.8584 4.1548-4.1548-1.8584-4.1548-4.1548-4.1548zm5.9559 11.6867c-1.2403.9783-2.7262 1.6619-4.3513 1.9361v.0041l4.3923 4.6174zm3.635-7.1267c-.0737 1.7766-.6304 3.4262-1.5432 4.8262h.0041l6.795.1719z" fill="#e20ab7" fill-rule="evenodd"/><path d="m7.02839 19.9957c0 6.0337 4.45361 11.044 10.24991 11.9241v7.1144c-9.69321-.9293-17.2783-9.0956-17.2783-19.0344s7.58509-18.10517 17.2783-19.034379v7.106169c-5.7963.88008-10.24991 5.89041-10.24991 11.92411z" fill="#e20ab7"/><g fill="#fff"><path d="m56.7349 13.0699v.0082c-3.7168.0246-6.7214 3.0455-6.7214 6.7664s3.0046 6.7419 6.7214 6.7664v.0082h7.6137v3.1478h-7.6137v-.0122c-5.4934-.0246-9.9429-4.4864-9.9429-9.988 0-5.5015 4.4454-9.96333 9.9429-9.98789h7.6137v3.29109z"/><path clip-rule="evenodd" d="m146.81 9.81156c-5.518 0-9.992 4.47414-9.992 9.99204s4.474 9.992 9.992 9.992 9.992-4.4741 9.992-9.992-4.474-9.99204-9.992-9.99204zm0 16.62334c-3.663 0-6.631-2.9677-6.631-6.6313s2.968-6.6314 6.631-6.6314c3.664 0 6.632 2.9678 6.632 6.6314s-2.968 6.6313-6.632 6.6313z" fill-rule="evenodd"/><path d="m70.6811 9.83612h3.6514v16.57008h10.2785v3.0906h-13.9299z"/><path d="m192.305 22.5584v6.9384h-3.652v-6.8811l-7.724-12.77958h3.905l5.76 9.57858 5.812-9.57858h3.594z"/><path d="m160.13 12.9266h6.513v16.5702h3.651v-16.5702h6.517v-3.09048h-16.681z"/><path d="m96.5188 9.83612h3.5942l8.874 19.66068h-3.819l-6.8809-16.0094-6.8524 16.0094h-3.7618z"/><path d="m126.568 23.0374c2.669-1.0398 4.184-3.2297 4.184-6.2056 0-4.3513-3.201-6.99159-8.371-6.99159h-8.089v3.09459h7.921c3.201-.0041 4.859 1.4286 4.859 3.901 0 2.4725-1.658 3.9338-4.859 3.9338h-7.921v8.7354h3.652v-5.7308h4.437c.254 0 .508 0 .757-.0287l4.016 5.7595h3.93l-4.524-6.4594z"/></g></svg>