<?xml version="1.0" encoding="UTF-8"?><svg id="OI" xmlns="http://www.w3.org/2000/svg" viewBox="0 0 413.64 72.9986"><defs><style>.cls-1{fill:#40535d;}.cls-2{fill:#04aada;}</style></defs><path class="cls-2" d="M64.773,17.9531c0-.5766.5189-1.0377,1.0952-1.0377h.8644c.577,0,.9803.4033,1.4414.8648l22.1357,21.2713h.0578v-20.4642c0-.5763.4615-1.0952,1.0955-1.0952h6.9176c.5763,0,1.0952.5189,1.0952,1.0952v38.7952c0,.6918-.5189,1.0381-1.0952,1.0381h-.5766c-.5767,0-.98-.1733-1.4411-.6341l-22.4242-22.5397h-.0574v21.5016c0,.5766-.4611,1.0955-1.0955,1.0955h-6.8598c-.5767,0-1.0952-.5189-1.0952-1.0955l-.0578-38.7952"/><path class="cls-2" d="M106.4504,18.5872c0-.5763.4614-1.0952,1.0951-1.0952h23.8653c.6341,0,1.0952.5189,1.0952,1.0952v6.2835c0,.5767-.4611,1.0952-1.0952,1.0952h-15.9677v7.1479h13.143c.5767,0,1.0955.5189,1.0955,1.0955v6.2832c0,.6341-.5189,1.0952-1.0955,1.0952h-13.143v7.782h15.9677c.6341,0,1.0952.5189,1.0952,1.0955v6.2832c0,.5767-.4611,1.0955-1.0952,1.0955h-23.8653c-.6337,0-1.0951-.5189-1.0951-1.0955V18.5872"/><path class="cls-1" d="M161.213,18.4456c0-.5766.5189-1.0955,1.0955-1.0955h6.9172c.5766,0,1.0955.5189,1.0955,1.0955v38.1612c0,.5767-.5189,1.0952-1.0955,1.0952h-6.9172c-.5767,0-1.0955-.5185-1.0955-1.0952V18.4456"/><path class="cls-1" d="M177.6537,18.4456c0-.5767.4611-1.0955,1.0374-1.0955h14.0659c11.1252,0,20.2331,9.0501,20.2331,20.1183,0,11.183-9.1079,20.2335-20.2331,20.2335h-14.0659c-.5763,0-1.0374-.5185-1.0374-1.0952V18.4456M192.6992,49.1707c6.5139,0,10.7223-5.1306,10.7223-11.7023,0-6.5143-4.2084-11.6445-10.7223-11.6445h-6.0528v23.3468h6.0528Z"/><path class="cls-1" d="M219.1502,18.4456c0-.5766.4614-1.0955,1.0955-1.0955h23.8649c.6341,0,1.0955.5189,1.0955,1.0955v6.2832c0,.5767-.4614,1.0952-1.0955,1.0952h-15.9677v7.1483h13.1433c.5766,0,1.0951.5185,1.0951,1.0952v6.2832c0,.6344-.5185,1.0955-1.0951,1.0955h-13.1433v7.782h15.9677c.6341,0,1.0955.5189,1.0955,1.0952v6.2835c0,.5767-.4614,1.0952-1.0955,1.0952h-23.8649c-.6341,0-1.0955-.5185-1.0955-1.0952V18.4456"/><path class="cls-1" d="M251.3532,17.8116c0-.5766.5189-1.0381,1.0948-1.0381h.8651c.5759,0,.9796.4037,1.4407.8648l22.136,21.2713h.0578v-20.4639c0-.5766.4607-1.0955,1.0955-1.0955h6.919c.5741,0,1.0941.5189,1.0941,1.0955v38.7952c0,.6918-.52,1.0378-1.0941,1.0378h-.5777c-.5777,0-.9821-.173-1.4407-.6341l-22.4253-22.5397h-.0574v21.502c0,.5766-.4615,1.0952-1.0955,1.0952h-6.8598c-.5763,0-1.0951-.5185-1.0951-1.0952l-.0574-38.7952"/><path class="cls-1" d="M302.8971,25.824h-8.2435c-.6355,0-1.0977-.5185-1.0977-1.0952v-6.2832c0-.5766.4622-1.0955,1.0977-1.0955h25.5934c.6355,0,1.0977.5189,1.0977,1.0955v6.2832c0,.5767-.4622,1.0952-1.0977,1.0952h-8.2435v30.7829c0,.5766-.5164,1.0952-1.0941,1.0952h-6.9183c-.5777,0-1.094-.5185-1.094-1.0952v-30.7829"/><path class="cls-1" d="M328.8443,18.4456c0-.5766.5199-1.0955,1.0977-1.0955h6.9147c.5777,0,1.0977.5189,1.0977,1.0955v38.1612c0,.5767-.52,1.0952-1.0977,1.0952h-6.9147c-.5777,0-1.0977-.5185-1.0977-1.0952V18.4456"/><path class="cls-1" d="M354.4341,25.824h-8.2399c-.6355,0-1.0977-.5185-1.0977-1.0952v-6.2832c0-.5766.4622-1.0955,1.0977-1.0955h25.5934c.6319,0,1.0941.5189,1.0941,1.0955v6.2832c0,.5767-.4622,1.0952-1.0941,1.0952h-8.2435v30.7829c0,.5766-.52,1.0952-1.0977,1.0952h-6.9147c-.5777,0-1.0977-.5185-1.0977-1.0952v-30.7829"/><path class="cls-1" d="M390.7769,38.3456l-12.7389-19.2535c-.4622-.7492,0-1.6714.9243-1.6714h7.4924c.4622,0,.7511.2878.9208.5185l8.016,11.8174,8.0124-11.8174c.1733-.2307.4008-.5185.9207-.5185h7.4924c.9244,0,1.3866.9222.9244,1.6714l-12.9122,19.1961v18.3888c0,.5767-.52,1.0955-1.0941,1.0955h-6.8605c-.6355,0-1.0977-.5189-1.0977-1.0955v-18.3313"/><path class="cls-2" d="M52.8247,64.3657c-9.9817,5.8608-22.3326,5.9512-32.3993.2369-10.0667-5.7143-16.3199-16.3649-16.4045-27.9399l-3.5996.0263c.094,12.861,7.042,24.6953,18.2272,31.0446,11.1852,6.349,24.9077,6.2489,35.9993-.2632l-1.823-3.1046Z"/><path class="cls-2" d="M20.0158,8.4858h0c9.9817-5.8608,22.3322-5.9511,32.3989-.2369l1.777-3.1309c-11.1848-6.349-24.9077-6.2489-35.9989.2632h0C7.1019,11.8932.327,23.8276.4214,36.6889l3.5996-.0263c-.0842-11.5751,6.0124-22.316,15.9948-28.1768Z"/><path class="cls-2" d="M36.4203,7.6258c10.2892,0,19.7968,5.4893,24.9415,14.4l-3.1176,1.8c-4.5018-7.7969-12.8207-12.6-21.8239-12.6v-3.6"/><path class="cls-2" d="M61.3618,50.8257l-3.1176-1.8c-4.5018,7.7969-12.8206,12.6-21.8239,12.6s-17.3221-4.8031-21.8239-12.6l-3.1176,1.8c5.1447,8.9107,14.6523,14.4,24.9415,14.4h0c10.2892,0,19.7967-5.4893,24.9415-14.4Z"/><path class="cls-2" d="M14.5963,23.8257l-3.1176-1.8c-5.1447,8.9107-5.1447,19.8893,0,28.8l3.1176-1.8c-4.5014-7.7969-4.5014-17.4031,0-25.2Z"/><path class="cls-2" d="M36.4203,14.8258c7.7166,0,14.8475,4.117,18.706,10.8,3.8588,6.683,3.8588,14.917,0,21.6-3.8585,6.683-10.9894,10.8-18.706,10.8s-14.8478-4.117-18.7063-10.8c-3.8585-6.683-3.8585-14.917,0-21.6,3.8585-6.683,10.989-10.8,18.7063-10.8M25.5079,30.1258c-2.2507,3.8984-2.2507,8.7016,0,12.6,2.2511,3.8984,6.4105,6.3,10.9123,6.3s8.6612-2.4016,10.9116-6.3c2.2507-3.8984,2.2507-8.7016,0-12.6-2.2504-3.8984-6.4102-6.3-10.9116-6.3s-8.6612,2.4016-10.9123,6.3Z"/></svg>