<svg width="673" height="120" viewBox="0 0 673 120" fill="none" xmlns="http://www.w3.org/2000/svg">
<path d="M21.5716 71.2169C21.5716 93.009 31.625 106.342 46.9444 106.342C62.2639 106.342 71.8556 93.009 71.8556 71.2169C71.8556 47.8658 62.3494 35.9134 46.9444 35.9134C31.5395 35.9134 21.5716 47.8658 21.5716 71.2169ZM93.0737 71.2169C93.0737 99.3473 72.6849 119.027 46.7564 119.027C20.8279 119.027 0.353516 99.3473 0.353516 71.2169C0.353516 43.0865 21.11 23.4072 46.7564 23.4072C72.4027 23.4072 93.0737 43.0865 93.0737 71.2169Z" fill="#55A05E"/>
<path d="M550.383 49.3567C550.383 42.5754 556.837 38.1539 566.412 38.1539C577.679 38.1539 583.877 43.1121 584.629 51.0179H603.488C603.112 34.6696 589.297 23.4668 566.412 23.4668C546.322 23.4668 532.311 33.2043 532.311 50.2938C532.311 84.6687 587.066 69.6068 587.066 91.9952C587.066 99.5432 579.885 104.322 568.994 104.322C556.752 104.322 549.528 99.0491 548.194 90.9559H529.233C530.353 107.866 545.826 119.027 568.994 119.027C589.647 119.027 605.138 109.272 605.138 91.0751C605.138 56.7087 550.383 71.6088 550.383 49.3567Z" fill="#55A05E"/>
<path d="M104.683 117.263V25.2473H122.097V53.7526C127.303 33.8943 138.485 23.4072 156.771 23.4072C173.261 23.4072 186.153 33.6132 186.153 54.1189V117.263H167.038V61.1046C167.038 48.8796 160.558 39.2188 147.769 39.2188C130.808 39.2188 123.79 54.0252 123.79 64.5038V117.255H104.674L104.683 117.263Z" fill="#55A05E"/>
<path d="M515.777 25.2473V117.255H497.594V88.6813C493.354 108.539 482.471 119.027 464.664 119.027C448.609 119.027 436.06 108.821 436.06 88.3149V25.2473H455.064V81.3292C455.064 93.5542 460.971 103.215 473.427 103.215C489.943 103.215 496.765 88.4086 496.765 77.93V25.2473H515.777Z" fill="#55A05E"/>
<path d="M244.251 105.507C228.11 105.507 219.613 93.009 219.613 72.3159V70.6546H287.336C286.781 41.6042 271.932 23.3987 243.515 23.3987C217.04 23.3987 198.309 42.7032 198.309 71.941C198.309 98.5124 213.996 119.018 244.071 119.018C272.581 119.018 285.952 100.591 286.789 84.132H267.23C265.845 97.3708 260.399 105.498 244.259 105.498L244.251 105.507ZM243.695 36.9186C258.92 36.9186 265.665 48.4621 266.255 60.619H220.511C222.887 45.0374 230.889 36.9186 243.703 36.9186H243.695Z" fill="#55A05E"/>
<path d="M423.724 25.2559V44.1429C417.295 43.7766 414.808 43.5892 412.593 43.5892C399.086 43.5892 390.426 49.3822 387.614 66.0628C387.075 69.2234 386.853 72.4266 386.853 75.6384V117.255H367.84V25.2388H385.195V54.1274C385.314 53.7185 388.759 42.5243 391.64 37.5831C395.316 30.1714 402.249 25.2644 410.533 25.2644H423.707L423.724 25.2559Z" fill="#55A05E"/>
<path d="M648.335 96.7574C648.335 102.84 650.541 105.038 656.619 105.038L672.22 105.132V117.263H650.002C637.093 117.263 629.707 109.92 629.707 97.0556V53.2158H629.69V38.3328H611.182V27.6157C612.413 27.6157 612.011 27.5986 613.704 27.556C616.704 27.5134 618.97 27.4283 620.534 27.309C624.407 27.1045 626.989 26.3548 628.279 25.0684C629.553 23.7991 630.4 21.1666 630.861 17.1882C631.195 14.9902 631.443 12.247 631.613 8.97568C631.776 5.72134 631.861 1.37655 631.861 0.839844H648.352V25.2559H672.237V38.3413H648.352V96.766L648.335 96.7574Z" fill="#55A05E"/>
<path d="M328.174 96.7574C328.174 102.84 330.38 105.038 336.458 105.038L352.059 105.132V117.263H329.841C316.932 117.263 309.546 109.92 309.546 97.0556V53.2158H309.529V38.3328H291.021V27.6157C292.252 27.6157 291.85 27.5986 293.543 27.556C296.544 27.5134 298.809 27.4283 300.373 27.309C304.246 27.1045 306.828 26.3548 308.119 25.0684C309.392 23.7991 310.239 21.1666 310.7 17.1882C311.034 14.9902 311.282 12.247 311.453 8.97568C311.615 5.72134 311.701 1.37655 311.701 0.839844H328.191V25.2559H352.076V38.3413H328.191V96.766L328.174 96.7574Z" fill="#55A05E"/>
</svg>
