<?xml version="1.0" encoding="UTF-8"?> <svg xmlns="http://www.w3.org/2000/svg" width="164" height="48" viewBox="0 0 164 48" fill="none"><path d="M53.7428 24.6263C55.5085 24.6263 56.5974 23.6316 56.5974 22.0778C56.5974 20.6652 55.485 19.7588 53.7428 19.7588H51.3885V24.6263H53.7428ZM53.837 16.3038C57.957 16.3038 60.5173 18.5287 60.5173 22.0778C60.5173 25.7623 57.8275 28.0577 53.5132 28.0577H51.4061V32.0718H47.4862V16.3038H53.837Z" fill="white"></path><path d="M67.4507 22.5898H74.4312V25.9271H67.4507V28.6639H75.4494V32.0718H63.5308V16.3038H75.4494V19.7117H67.4507V22.5898Z" fill="white"></path><path d="M94.019 32.0718H90.982L83.4247 23.4256V32.0718H79.5047V16.3038H82.4947L90.0991 25.1854V16.3038H94.019V32.0718Z" fill="white"></path><path d="M106.538 19.8059V32.0718H102.618V19.8059H97.5916V16.3038H111.547V19.8059H106.538Z" fill="white"></path><path d="M118.621 22.5898H125.596V25.9271H118.621V28.6639H126.62V32.0718H114.702V16.3038H126.62V19.7117H118.621V22.5898Z" fill="white"></path><path d="M137.491 23.9789C138.998 23.9789 140.204 23.1431 140.204 21.8482C140.204 20.5534 138.998 19.7588 137.491 19.7588H134.595V23.9789H137.491ZM134.595 27.5103V32.0777H130.664V16.3038H137.574C141.47 16.3038 144.089 18.4404 144.089 21.8482C144.11 22.867 143.837 23.8702 143.303 24.7378C142.768 25.6053 141.995 26.3002 141.076 26.7393L145.131 32.0718H140.422L137.038 27.5044L134.595 27.5103Z" fill="white"></path><path d="M154.448 20.7772L152.406 26.0214H156.484L154.448 20.7772ZM151.111 29.3586L150.087 32.072H145.914L152.618 16.2099H156.349L163.024 32.1014H158.874L157.809 29.3881L151.111 29.3586Z" fill="white"></path><path d="M21.1946 23.2021L13.0369 18.4935V27.9107L21.1946 23.2021Z" fill="white"></path><path d="M9.01697 16.1686L0 10.9656V38.5285C0 38.9188 0.155026 39.2931 0.430974 39.569C0.706922 39.845 1.08119 40 1.47144 40H9.01697V16.1686Z" fill="white"></path><path d="M13.0369 32.5603V39.9999H30.2469C30.6371 39.9999 31.0114 39.8449 31.2873 39.5689C31.5633 39.293 31.7183 38.9187 31.7183 38.5285V21.7717L13.0369 32.5603Z" fill="white"></path><path d="M25.2205 20.8772L31.6948 17.128V9.75318C31.6948 9.36697 31.543 8.99623 31.2722 8.72095C31.0013 8.44567 30.633 8.28792 30.2469 8.28174H3.40198L25.2205 20.8772Z" fill="white"></path></svg> 