<svg width="203" height="50" viewBox="0 0 203 50" fill="none" xmlns="http://www.w3.org/2000/svg">
<g clip-path="url(#clip0_9905_92)">
<path d="M96.6776 33.4487C96.6776 35.2964 96.2835 36.9508 95.4953 38.4156C94.7072 39.8804 93.6476 41.018 92.3204 41.8285C90.9894 42.6389 89.4503 43.0442 87.6918 43.0442C85.7548 43.0442 84.2566 42.5051 83.197 41.4232C82.1374 40.3414 81.6095 38.7427 81.6095 36.6273V14.8711H73.0959V38.3858C73.0959 40.5942 73.5569 42.5757 74.4826 44.3305C75.4046 46.089 76.7356 47.472 78.468 48.487C80.2005 49.5019 82.2639 50.0075 84.6506 50.0075C87.6695 50.0075 90.2942 49.2528 92.5211 47.7434C94.3837 46.4831 95.8559 44.8659 96.949 42.8992V49.3309H105.258V14.8636H96.6776V33.445V33.4487Z" fill="#14215C"/>
<path d="M136.138 16.3173C133.613 14.8971 130.643 14.187 127.219 14.187C123.613 14.187 120.46 14.9417 117.761 16.4511C115.058 17.9605 112.954 20.0573 111.444 22.7341C109.935 25.4146 109.18 28.5115 109.18 32.0248C109.18 35.538 109.935 38.6461 111.444 41.3489C112.954 44.0517 115.069 46.1708 117.794 47.6988C120.519 49.2305 123.706 49.9964 127.356 49.9964C131.409 49.9964 134.777 49.0483 137.458 47.1597C140.138 45.2674 142.042 42.6984 143.168 39.4566H135.126C134.494 40.8544 133.506 41.888 132.152 42.5646C130.803 43.2412 129.223 43.5795 127.423 43.5795C124.315 43.5795 121.917 42.598 120.226 40.6388C118.939 39.148 118.148 37.1515 117.839 34.6607H143.841C143.93 34.1216 143.997 33.5788 144.045 33.0397C144.09 32.5006 144.112 31.9132 144.112 31.2812C144.112 27.8572 143.413 24.8607 142.019 22.2954C140.621 19.7265 138.662 17.7337 136.141 16.3173H136.138ZM127.085 20.6076C129.743 20.6076 131.814 21.418 133.301 23.039C134.528 24.3774 135.238 26.2734 135.454 28.716H117.984C118.359 26.6192 119.103 24.9016 120.226 23.5818C121.914 21.6002 124.2 20.6076 127.085 20.6076Z" fill="#14215C"/>
<path d="M166.437 28.9873L160.493 27.6377C158.69 27.1879 157.407 26.6562 156.641 26.0502C155.875 25.4405 155.492 24.6895 155.492 23.7861C155.492 22.615 155.987 21.7265 156.979 21.1168C157.968 20.5071 159.433 20.2059 161.37 20.2059C163.441 20.2059 165.077 20.5666 166.27 21.2878C167.464 22.009 168.174 23.0686 168.4 24.4628H176.17C175.899 21.2655 174.468 18.7523 171.88 16.9306C169.289 15.1052 165.854 14.1943 161.575 14.1943C157.295 14.1943 153.86 15.1052 151.407 16.9306C148.949 18.756 147.726 21.2655 147.726 24.4628C147.726 27.0763 148.637 29.2512 150.462 30.9837C152.288 32.7199 155.091 33.9913 158.876 34.8018L164.415 36.0844C166.17 36.4897 167.363 36.9953 167.995 37.605C168.623 38.2147 168.939 38.9917 168.939 39.936C168.939 41.2447 168.386 42.2447 167.285 42.9437C166.181 43.6426 164.526 43.9921 162.318 43.9921C159.887 43.9921 157.95 43.5422 156.507 42.6425C155.065 41.7429 154.232 40.4119 154.009 38.6571H146.239C146.51 42.215 148.064 44.9996 150.901 47.0035C153.738 49.0073 157.545 50.0111 162.322 50.0111C167.099 50.0111 170.408 49.1114 172.929 47.3083C175.449 45.5089 176.713 42.9623 176.713 39.6721C176.713 37.1031 175.847 34.8762 174.111 32.9838C172.375 31.0915 169.821 29.7643 166.441 28.9984L166.437 28.9873Z" fill="#14215C"/>
<path d="M202.596 21.5556V14.8674H193.205V3.85168L184.625 7.02664V14.8637H173.152C175.691 16.031 177.881 20.2209 178 21.5519H184.621V37.9695C184.621 41.9809 185.621 44.9849 187.629 46.9887C189.632 48.9926 192.752 49.9964 196.986 49.9964C198.202 49.9964 199.306 49.9183 200.299 49.7584C201.288 49.5986 202.057 49.3867 202.596 49.1153V42.494C202.057 42.6761 201.481 42.8211 200.875 42.9327C200.265 43.0442 199.581 43.1 198.815 43.1C196.878 43.1 195.458 42.6947 194.558 41.8843C193.655 41.0738 193.205 39.8358 193.205 38.1665V21.5445H202.596V21.5556Z" fill="#14215C"/>
<path d="M70.3224 41.9176L58.8829 42.3489C59.2138 42.0924 59.5372 41.8284 59.8458 41.5533C62.0988 39.5271 63.7643 37.0585 64.8462 34.155C65.928 31.2514 66.4671 28.1545 66.4671 24.8643C66.4671 19.9532 65.4299 15.6294 63.3591 11.8894C61.2883 8.1493 58.4145 5.23459 54.745 3.13778C51.0719 1.0484 46.8485 0 42.075 0C37.3014 0 33.2118 1.0484 29.5387 3.1415C27.2374 4.45386 25.2484 6.08967 23.5754 8.04149L29.5015 13.9007C30.6726 12.0306 32.1672 10.5138 34 9.35757C36.3199 7.89278 39.0115 7.16038 42.075 7.16038C45.1384 7.16038 47.8969 7.89278 50.2168 9.35757C52.5367 10.8224 54.3398 12.8708 55.6224 15.5067C56.9051 18.1426 57.5482 21.2172 57.5482 24.7305C57.5482 28.4259 56.8939 31.6678 55.589 34.4598C54.2803 37.2518 52.4698 39.4044 50.1499 40.9138C47.83 42.4232 45.1384 43.1779 42.075 43.1779C39.0115 43.1779 36.3868 42.4232 34.0669 40.9138C32.9702 40.2 31.9924 39.3412 31.1299 38.3486L25.6351 43.9066C26.8359 44.9922 28.1557 45.9588 29.6093 46.7916C33.3271 48.933 37.6397 50 42.5471 50C45.1161 50 47.4136 49.9665 49.4398 49.8996C51.466 49.8327 53.4141 49.7546 55.2841 49.6617C57.1541 49.5725 59.158 49.4944 61.2994 49.4237C63.4371 49.3568 71.7017 49.3234 74.5383 49.3234C74.5383 49.3234 70.8094 48.208 70.3224 41.9176Z" fill="#14215C"/>
<path d="M33.2602 23.3067L21.1961 11.3801L17.6643 14.9529L26.8583 23.9573H10.5708V29.8945L26.6575 29.9057L17.8018 38.9435L21.3746 42.4717L33.3011 30.4076L36.8293 26.8385L33.2602 23.3067Z" fill="#0A8CBF"/>
<path d="M6.67083 23.9572H0.737305V29.8907H6.67083V23.9572Z" fill="#0A8CBF"/>
</g>
<defs>
<clipPath id="clip0_9905_92">
<rect width="201.859" height="50" fill="white" transform="translate(0.737244)"/>
</clipPath>
</defs>
</svg>
