<svg width="260" height="52" xmlns="http://www.w3.org/2000/svg" xmlns:xlink="http://www.w3.org/1999/xlink" overflow="hidden"><defs><clipPath id="clip0"><rect x="427" y="9" width="260" height="52"/></clipPath></defs><g clip-path="url(#clip0)" transform="translate(-427 -9)"><path d="M532.82 45.478 532.82 28.838 535.732 28.838 535.732 42.878 543.688 42.878 543.688 45.452 532.82 45.452Z" fill="#ED7D31"/><path d="M561.03 45.478 559.808 42.28 551.93 42.28 550.708 45.478 547.51 45.478 554.036 28.864 557.676 28.864 564.202 45.478 561.03 45.478ZM555.856 31.308 552.736 39.706 558.976 39.706 555.856 31.308Z" fill="#ED7D31"/><path d="M601.382 45.478 598.132 33.232 594.908 45.478 591.788 45.478 587.03 28.864 590.306 28.864 593.556 41.682 596.988 28.864 599.302 28.864 602.734 41.682 605.958 28.864 609.234 28.864 604.502 45.478 601.382 45.478Z" fill="#ED7D31"/><path d="M614.954 45.478 614.954 28.838 617.866 28.838 617.866 45.452 614.954 45.452Z" fill="#ED7D31"/><path d="M637.054 45.478 628.396 33.362 628.396 45.478 625.484 45.478 625.484 28.838 628.474 28.838 636.976 40.616 636.976 28.838 639.888 28.838 639.888 45.452 637.054 45.452Z" fill="#ED7D31"/><path d="M646.83 45.478 646.83 28.838 653.018 28.838C658.192 28.838 661.702 32.27 661.702 37.158 661.702 42.046 658.192 45.452 653.018 45.452L646.83 45.452ZM649.742 42.904 653.018 42.904C656.632 42.904 658.712 40.304 658.712 37.184 658.712 33.96 656.71 31.438 653.018 31.438L649.742 31.438 649.742 42.904Z" fill="#ED7D31"/><path d="M519.196 28.578C514.438 28.578 510.59 32.426 510.59 37.184 510.59 41.942 514.438 45.79 519.196 45.79 523.954 45.79 527.802 41.942 527.802 37.184 527.776 32.426 523.928 28.578 519.196 28.578ZM519.196 42.878C516.05 42.878 513.502 40.33 513.502 37.184 513.502 34.038 516.05 31.49 519.196 31.49 522.342 31.49 524.89 34.038 524.89 37.184 524.89 40.33 522.316 42.878 519.196 42.878Z" fill="#ED7D31"/><path d="M580.14 40.252 580.14 40.252 580.114 40.2 580.088 40.174 579.308 38.926 579.308 38.926 579.152 38.692C580.79 38.094 582.168 36.56 582.168 34.064 582.168 30.996 580.036 28.864 576.734 28.864L569.48 28.864 569.48 45.478 572.392 45.478 572.392 39.264 573.458 39.264 575.278 39.264 576.344 39.264 580.036 45.478 583.39 45.478 580.14 40.252ZM572.392 36.69 572.392 31.412 576.37 31.412C578.008 31.412 579.204 32.452 579.204 34.064 579.204 35.65 578.008 36.716 576.37 36.716L572.392 36.716Z" fill="#ED7D31"/><path d="M500.502 35.468C498.526 34.974 496.836 34.558 496.836 33.258 496.836 32.01 497.928 31.178 499.644 31.178 501.282 31.178 502.946 31.724 504.22 32.868L506.04 30.996 506.092 30.918C504.558 29.436 502.452 28.604 499.852 28.604 496.212 28.604 493.794 30.71 493.794 33.466 493.794 36.976 496.992 37.782 499.696 38.458 501.724 38.978 503.492 39.42 503.492 40.928 503.492 42.02 502.556 43.19 500.164 43.19 498.058 43.19 496.368 42.306 495.224 41.214L493.326 43.164C494.808 44.724 497.018 45.79 500.06 45.79 504.532 45.79 506.482 43.424 506.482 40.668 506.508 37.028 503.258 36.17 500.502 35.468Z" fill="#ED7D31"/><path d="M673.246 35.468C671.27 34.974 669.58 34.558 669.58 33.258 669.58 32.01 670.672 31.178 672.388 31.178 674.026 31.178 675.69 31.724 676.964 32.868L678.784 30.996 678.836 30.918C677.302 29.436 675.196 28.604 672.596 28.604 668.956 28.604 666.538 30.71 666.538 33.466 666.538 36.976 669.736 37.782 672.44 38.458 674.468 38.978 676.236 39.42 676.236 40.928 676.236 42.02 675.3 43.19 672.908 43.19 670.802 43.19 669.112 42.306 667.968 41.214L666.07 43.164C667.552 44.724 669.762 45.79 672.804 45.79 677.276 45.79 679.226 43.424 679.226 40.668 679.252 37.028 675.976 36.17 673.246 35.468Z" fill="#ED7D31"/><path d="M682.372 30.242 682.008 30.242 682.008 30.866 681.8 30.866 681.8 29.332 682.294 29.332C682.476 29.332 682.606 29.384 682.684 29.462 682.788 29.54 682.814 29.644 682.814 29.8 682.814 29.904 682.788 29.982 682.736 30.06 682.684 30.138 682.606 30.19 682.528 30.216L682.892 30.866 682.892 30.866 682.684 30.866 682.372 30.242ZM682.008 30.086 682.32 30.086C682.424 30.086 682.502 30.06 682.554 30.008 682.606 29.956 682.632 29.878 682.632 29.8 682.632 29.696 682.606 29.644 682.554 29.592 682.502 29.54 682.424 29.514 682.32 29.514L682.008 29.514 682.008 30.086Z" fill="#ED7D31"/><path d="M682.268 31.438C681.54 31.438 680.968 30.84 680.968 30.138 680.968 29.41 681.566 28.838 682.268 28.838 682.97 28.838 683.568 29.436 683.568 30.138 683.594 30.866 682.996 31.438 682.268 31.438ZM682.268 29.02C681.644 29.02 681.15 29.514 681.15 30.138 681.15 30.762 681.644 31.256 682.268 31.256 682.892 31.256 683.386 30.762 683.386 30.138 683.412 29.514 682.892 29.02 682.268 29.02Z" fill="#ED7D31"/><path d="M463.504 54.24 462.88 54.24 462.88 56.008 462.62 56.008 462.62 54.24 461.996 54.24 461.996 54.032 463.53 54.032 463.53 54.24Z" fill="#ED7D31"/><path d="M464.154 54.032 464.804 55.644 465.454 54.032 465.792 54.032 465.792 56.008 465.532 56.008 465.532 55.228 465.558 54.396 464.908 56.008 464.7 56.008 464.05 54.396 464.076 55.228 464.076 56.008 463.816 56.008 463.816 54.032 464.154 54.032Z" fill="#ED7D31"/><path d="M454.352 34.116C454.508 34.064 454.638 34.038 454.794 33.986 458.096 33.05 461.294 31.776 464.492 30.424 467.612 29.124 470.706 27.538 473.41 25.328 476.192 23.066 478.428 20.128 479.676 16.488 479.858 15.994 480.196 15.24 480.248 14.694 475.932 20.648 458.72 21.272 458.72 21.272L462.776 17.554C446.448 17.58 435.06 24.496 429.834 28.214 436.516 28.942 442.548 31.75 447.306 36.014 449.62 35.286 452.012 34.766 454.352 34.116Z" fill="#ED7D31"/><path d="M481.34 33.544C481.34 33.544 465.454 32.322 448.97 37.652 451.154 39.94 453 42.54 454.404 45.4 463.088 40.59 475.1 34.428 481.34 33.544Z" fill="#ED7D31"/><path d="M455.496 47.896C456.51 50.496 457.186 53.252 457.446 56.112L472.552 40.564 455.496 47.896Z" fill="#ED7D31"/></g></svg>